<svg width="539" height="221" viewBox="0 0 539 221" fill="none" xmlns="http://www.w3.org/2000/svg">
<path d="M84.3751 178.6H0V171.992H11.6905V66.608H0V60.0003H32.6996V66.608H18.6371V171.992H77.7674V152.508H84.3751V178.6Z" fill="black"/>
<path d="M110.358 178.6H77.6588V171.992H90.7048V121.672H77.6588V115.064H97.6513V171.992H110.358V178.6ZM99.8539 92.5305C99.8539 94.1118 99.2891 95.4672 98.1596 96.5967C97.0301 97.6133 95.7311 98.1216 94.2628 98.1216C92.9073 98.1216 91.6649 97.6133 90.5354 96.5967C89.4058 95.4672 88.8411 94.1118 88.8411 92.5305C88.8411 90.9491 89.4058 89.6502 90.5354 88.6336C91.6649 87.5041 92.9073 86.9393 94.2628 86.9393C95.7311 86.9393 97.0301 87.5041 98.1596 88.6336C99.2891 89.6502 99.8539 90.9491 99.8539 92.5305Z" fill="black"/>
<path d="M103.53 178.6V171.992H116.067V115.064V58.1366H104.038V51.5289H123.014V146.409L149.445 121.672H139.11V115.064H170.454V121.672H158.085C154.697 125.061 151.534 128.167 148.597 130.991C145.774 133.701 142.555 136.751 138.94 140.14C142.78 145.561 146.621 150.927 150.461 156.235C154.302 161.431 158.198 166.683 162.152 171.992H176.892V178.6H145.548V171.992H153.85C150.461 167.361 147.073 162.843 143.684 158.438C140.296 153.92 137.02 149.345 133.857 144.714L123.014 155.049V171.992H136.229V178.6H103.53Z" fill="black"/>
<path d="M213.638 178.6H179.583V171.992H193.476V6.60769H156.711H156.678H150.07L150.103 0H243.797V6.5958H237.189V6.60769H200.423V171.992H213.638V178.6Z" fill="black"/>
<path d="M246.384 220.957H213.685V214.349H228.086C230.91 208.363 233.79 202.433 236.727 196.559C239.777 190.686 242.77 184.812 245.707 178.939C240.85 169.451 236.049 159.963 231.305 150.475C226.561 140.987 221.817 131.386 217.073 121.672H204.027V115.064H235.371V121.672H224.528C228.707 130.256 232.887 138.728 237.066 147.086C241.358 155.445 245.481 163.86 249.434 172.331C253.161 164.086 257.115 155.727 261.294 147.256C265.586 138.784 269.878 130.256 274.17 121.672H264.344V115.064H293.993V121.672H281.625C273.945 137.259 266.264 152.734 258.583 168.095C250.902 183.344 243.222 198.762 235.541 214.349H246.384V220.957Z" fill="black"/>
<path d="M288.502 220.957V214.349H299.853V121.672H287.146V115.064H305.444C305.444 117.662 305.501 120.26 305.614 122.858C305.84 125.343 305.953 127.828 305.953 130.313C307.873 125.908 311.205 122.067 315.949 118.792C320.693 115.516 326.454 113.878 333.231 113.878C337.749 113.878 342.041 114.726 346.107 116.42C350.173 118.114 353.731 120.486 356.781 123.536C359.831 126.585 362.203 130.143 363.897 134.21C365.591 138.163 366.438 142.399 366.438 146.917C366.438 151.435 365.591 155.727 363.897 159.793C362.203 163.86 359.831 167.361 356.781 170.298C353.731 173.235 350.173 175.607 346.107 177.414C342.041 179.108 337.749 179.955 333.231 179.955C329.842 179.955 326.679 179.503 323.743 178.6C320.806 177.809 318.208 176.623 315.949 175.042C313.577 173.573 311.6 171.992 310.019 170.298C308.551 168.491 307.421 166.57 306.63 164.537C306.63 165.667 306.63 166.796 306.63 167.926C306.743 168.942 306.8 169.959 306.8 170.976V214.349H321.201V220.957H288.502ZM333.231 120.656C329.39 120.656 325.832 121.333 322.557 122.689C319.394 124.044 316.627 125.908 314.255 128.28C311.883 130.652 310.019 133.476 308.664 136.751C307.421 139.914 306.8 143.302 306.8 146.917C306.8 150.644 307.478 154.146 308.833 157.421C310.188 160.584 312.109 163.408 314.594 165.893C316.966 168.152 319.733 169.959 322.896 171.314C326.058 172.557 329.503 173.178 333.231 173.178C336.732 173.178 340.064 172.557 343.227 171.314C346.39 169.959 349.157 168.152 351.529 165.893C354.014 163.521 355.934 160.697 357.289 157.421C358.758 154.146 359.492 150.644 359.492 146.917C359.492 143.076 358.758 139.518 357.289 136.243C355.934 132.967 354.014 130.143 351.529 127.771C349.157 125.625 346.39 123.931 343.227 122.689C340.064 121.333 336.732 120.656 333.231 120.656Z" fill="black"/>
<path d="M392.376 178.6H359.676V171.992H372.722V121.672H359.676V115.064H379.668V171.992H392.376V178.6ZM381.871 92.5305C381.871 94.1118 381.306 95.4672 380.177 96.5967C379.047 97.6133 377.748 98.1216 376.28 98.1216C374.924 98.1216 373.682 97.6133 372.552 96.5967C371.423 95.4672 370.858 94.1118 370.858 92.5305C370.858 90.9491 371.423 89.6502 372.552 88.6336C373.682 87.5041 374.924 86.9393 376.28 86.9393C377.748 86.9393 379.047 87.5041 380.177 88.6336C381.306 89.6502 381.871 90.9491 381.871 92.5305Z" fill="black"/>
<path d="M418.246 178.6H385.547V171.992H398.762V121.672H386.563V115.064H404.353L404.523 121.164C404.636 123.084 404.749 124.835 404.862 126.416C404.974 127.884 405.087 129.579 405.2 131.499C407.459 126.19 411.074 121.898 416.044 118.622C421.014 115.347 426.661 113.709 432.987 113.709C439.199 113.709 444.112 115.46 447.727 118.961C451.341 122.463 453.261 127.037 453.487 132.685V171.992H466.025V178.6H433.325V171.992H446.541V134.549C446.315 130.821 444.959 127.659 442.475 125.061C440.103 122.35 436.545 120.881 431.801 120.656C428.299 120.656 424.967 121.22 421.804 122.35C418.642 123.479 415.931 125.061 413.672 127.094C411.187 129.24 409.21 131.725 407.742 134.549C406.386 137.372 405.709 140.479 405.709 143.867V171.992H418.246V178.6Z" fill="black"/>
<path d="M467.706 211.13L472.619 205.539C474.991 208.024 478.041 210 481.768 211.469C485.496 213.05 489.393 213.841 493.459 213.841C496.961 213.841 500.236 213.107 503.286 211.638C506.449 210.283 509.216 208.25 511.588 205.539C513.847 202.941 515.654 199.778 517.01 196.051C518.365 192.436 519.043 188.427 519.043 184.022V172.162C519.043 171.032 519.043 169.79 519.043 168.434C519.156 167.079 519.212 165.667 519.212 164.198C518.421 166.345 517.179 168.321 515.485 170.128C513.903 171.936 512.04 173.517 509.894 174.872C507.522 176.454 504.867 177.696 501.93 178.6C498.994 179.391 495.887 179.786 492.612 179.786C487.868 179.786 483.463 178.939 479.397 177.244C475.443 175.437 471.942 173.009 468.892 169.959C465.842 167.022 463.47 163.577 461.776 159.624C460.082 155.671 459.235 151.378 459.235 146.747C459.235 142.342 460.082 138.107 461.776 134.04C463.47 129.974 465.842 126.416 468.892 123.366C471.942 120.43 475.443 118.114 479.397 116.42C483.463 114.613 487.868 113.709 492.612 113.709C498.937 113.709 504.528 115.29 509.385 118.453C514.242 121.616 517.687 125.456 519.72 129.974C519.72 127.489 519.777 125.061 519.89 122.689C520.003 120.204 520.172 117.662 520.398 115.064H538.527V121.672H525.989V184.36C525.989 190.008 525.142 195.034 523.448 199.439C521.753 203.958 519.438 207.741 516.501 210.791C513.564 213.954 510.119 216.382 506.166 218.077C502.326 219.884 498.147 220.844 493.628 220.957C488.207 220.957 483.293 220.053 478.888 218.246C474.596 216.552 470.869 214.18 467.706 211.13ZM492.612 120.486C488.772 120.486 485.214 121.22 481.938 122.689C478.662 124.044 475.895 125.964 473.636 128.449C471.264 130.821 469.4 133.588 468.045 136.751C466.802 139.801 466.181 143.133 466.181 146.747C466.181 150.475 466.859 153.976 468.214 157.252C469.683 160.415 471.603 163.182 473.975 165.554C476.347 167.926 479.114 169.79 482.277 171.145C485.439 172.387 488.884 173.009 492.612 173.009C496.339 173.009 499.784 172.331 502.947 170.976C506.223 169.507 509.046 167.587 511.418 165.215C513.79 162.956 515.654 160.245 517.01 157.082C518.365 153.92 519.043 150.475 519.043 146.747C519.043 143.02 518.308 139.518 516.84 136.243C515.372 132.967 513.395 130.087 510.91 127.602C508.538 125.343 505.771 123.592 502.608 122.35C499.446 121.107 496.113 120.486 492.612 120.486Z" fill="black"/>
</svg>
